# AST/ASF file generated using VICON BodyLanguage
# -----------------------------------------------
:version 1.10
:name VICON
:units
  mass 1.0
  length 0.45
  angle deg
:documentation
   .ast/.asf automatically generated from VICON data using
   VICON BodyBuilder and BodyLanguage model FoxedUp or BRILLIANT.MOD
:root
   order TX TY TZ RX RY RZ
   axis XYZ
   position 0 0 0  
   orientation 0 0 0 
:bonedata
  begin
     id 1 
     name lhipjoint
     direction 0.576517 -0.752066 0.319413 
     length 2.45433 
     axis 0 0 0  XYZ
  end
  begin
     id 2 
     name lfemur
     direction 0.34202 -0.939693 0  
     length 7.54459  
     axis 0 0 20  XYZ
    dof rx ry rz
    limits (-160.0 20.0)
           (-70.0 70.0)
           (-60.0 70.0)
  end
  begin
     id 3 
     name ltibia
     direction 0.34202 -0.939693 0   
     length 7.73986   
     axis 0 0 20   XYZ
    dof rx
    limits (-10.0 170.0)
  end
  begin
     id 4 
     name lfoot
     direction 0.090693 -0.249177 0.964202   
     length 2.28437   
     axis -90 7.62852e-016 20   XYZ
    dof rx rz
    limits (-45.0 90.0)
           (-70.0 20.0)
  end
  begin
     id 5 
     name ltoes
     direction 1.5356e-011 -4.21928e-011 1   
     length 1.14243   
     axis -90 7.62852e-016 20   XYZ
    dof rx
    limits (-90.0 20.0)
  end
  begin
     id 6 
     name rhipjoint
     direction -0.573937 -0.753736 0.320122   
     length 2.44889  
     axis 0 0 0  XYZ 
  end
  begin
     id 7 
     name rfemur
     direction -0.34202 -0.939693 0   
     length 7.50166   
     axis 0 0 -20   XYZ
    dof rx ry rz
    limits (-160.0 20.0)
           (-70.0 70.0)
           (-70.0 60.0)
  end
  begin
     id 8 
     name rtibia
     direction -0.34202 -0.939693 0   
     length 7.54266   
     axis 0 0 -20   XYZ
    dof rx
    limits (-10.0 170.0)
 end
 begin
     id 9 
     name rfoot
     direction -0.114017 -0.31326 0.942798   
     length 2.34212  
     axis -90 -7.62852e-016 -20   XYZ
    dof rx rz
    limits (-45.0 90.0)
           (-20.0 70.0)
  end
  begin
     id 10 
     name rtoes
     direction -1.53557e-011 -4.21867e-011 1   
     length 1.16246   
     axis -90 -7.62852e-016 -20   XYZ
    dof rx
    limits (-90.0 20.0)
  end
  begin
     id 11 
     name lowerback
     direction -0.0228371 0.999155 -0.034167   
     length 2.0537   
     axis 0 0 0   XYZ
    dof rx ry rz
    limits (-20.0 45.0)
           (-30.0 30.0)
           (-30.0 30.0)
  end
  begin
     id 12 
     name upperback
     direction 0.0198981 0.999794 0.00389455   
     length 2.05302   
     axis 0 0 0   XYZ
    dof rx ry rz
    limits (-20.0 45.0)
           (-30.0 30.0)
           (-30.0 30.0)
  end
  begin
     id 13 
     name thorax
     direction 0.0304566 0.99935 0.0192987   
     length 2.05315   
     axis 0 0 0   XYZ
    dof rx ry rz
    limits (-20.0 45.0)
           (-30.0 30.0)
           (-30.0 30.0)
  end
  begin
     id 14 
     name lowerneck
     direction -0.0196762 0.99417 0.106017   
     length 1.82056   
     axis 0 0 0   XYZ
    dof rx ry rz
    limits (-20.0 45.0)
           (-30.0 30.0)
           (-30.0 30.0)
  end
  begin
     id 15 
     name upperneck
     direction 0.00517787 0.9802 -0.197944   
     length 1.83835   
     axis 0 0 0   XYZ
    dof rx ry rz
    limits (-20.0 45.0)
           (-30.0 30.0)
           (-30.0 30.0)
  end
  begin
     id 16
     name head
     direction 0.00211419 0.996945 -0.078081  
     length 1.85629  
     axis 0 0 0   XYZ
    dof rx ry rz
    limits (-20.0 45.0)
           (-30.0 30.0)
           (-30.0 30.0)
  end
  begin
     id 17 
     name lclavicle
     direction 0.930001 0.365811 -0.0357824  
     length 3.81961  
     axis 0 0 0   XYZ
    dof ry rz
    limits (-20.0 10.0)
           (0.0 20.0)
  end
  begin
     id 18 
     name lhumerus
     direction 1 -4.48968e-011 -3.06644e-027   
     length 5.14507   
     axis 180 -30 -90   XYZ
    dof rx ry rz
    limits (-60.0 90.0)
           (-90.0 90.0)
           (-90.0 90.0)
  end
  begin
     id 19
     name lradius
     direction 1 -4.48965e-011 9.06925e-028   
     length 3.50646   
     axis 180 -30 -90   XYZ
    dof rx
    limits (-10.0 170.0)
  end
  begin
     id 20
     name lwrist
     direction 1 -4.48957e-011 1.03922e-027   
     length 1.75323   
     axis -2.56395e-016 90 90   XYZ
    dof ry
    limits (-180.0 0.0)
 end
  begin
     id 21 
     name lhand
     direction 1 -4.48967e-011 2.08017e-027   
     length 0.629969   
     axis -1.32723e-015 90 90   XYZ
    dof rx rz
    limits (-90.0 90.0)
           (-45.0 45.0)
  end
  begin
     id 22 
     name lfingers
     direction 1 -4.49089e-011 4.20095e-027   
     length 0.507897   
     axis -2.6545e-015 90 90   XYZ
    dof rx
    limits (0.0 90.0)
  end
  begin
     id 23
     name lthumb
     direction 0.707107 -6.35001e-011 0.707107   
     length 0.729241   
     axis -90 45 5.05613e-014   XYZ
    dof rx rz
    limits (-45.0 45.0)
           (-45.0 45.0)
  end
  begin
     id 24 
     name rclavicle
     direction -0.881882 0.464123 -0.0829113   
     length 3.47515  
     axis 0 0 0   XYZ 
    dof ry rz
    limits (-10.0 20.0)
           (-20.0 0.0)
  end
  begin
     id 25 
     name rhumerus
     direction -1 -4.48961e-011 -1.55672e-027  
     length 5.232   
     axis 180 30 90   XYZ
    dof rx ry rz
    limits (-90.0 60.0)
           (-90.0 90.0)
           (-90.0 90.0)
  end
  begin
     id 26 
     name rradius
     direction -1 -4.48963e-011 6.18178e-029   
     length 3.65641   
     axis 180 30 90   XYZ
    dof rx
    limits (-10.0 170.0)
  end
  begin
     id 27 
     name rwrist
     direction -1 -4.48982e-011 1.04136e-027   
     length 1.8282   
     axis -2.56395e-016 -90 -90   XYZ
    dof ry
    limits (-180.0 0.0)
  end
  begin
     id 28
     name rhand
     direction -1 -4.48929e-011 2.07378e-027   
     length 0.656807   
     axis -1.32723e-015 -90 -90   XYZ
    dof rx rz
    limits (-90.0 90.0)
           (-45.0 45.0)
  end
  begin
     id 29
     name rfingers
     direction -1 -4.489e-011 4.13816e-027   
     length 0.529535   
     axis -2.6545e-015 -90 -90   XYZ
    dof rx
    limits (0.0 90.0)
  end
  begin
     id 30
     name rthumb
     direction -0.707107 -6.34843e-011 0.707107   
     length 0.760309   
     axis -90 -45 -5.05613e-014   XYZ
    dof rx rz
    limits (-45.0 45.0)
           (-45.0 45.0)
  end
:hierarchy
  begin
    root lhipjoint rhipjoint lowerback
    lhipjoint lfemur
    lfemur ltibia
    ltibia lfoot
    lfoot ltoes
    rhipjoint rfemur
    rfemur rtibia
    rtibia rfoot
    rfoot rtoes
    lowerback upperback
    upperback thorax
    thorax lowerneck lclavicle rclavicle
    lowerneck upperneck
    upperneck head
    lclavicle lhumerus
    lhumerus lradius
    lradius lwrist
    lwrist lhand lthumb
    lhand lfingers
    rclavicle rhumerus
    rhumerus rradius
    rradius rwrist
    rwrist rhand rthumb
    rhand rfingers
  end

#!OML:ASF H:\ManfredETheater\Project 1\Capture day 1\Session 1\subject.ASF
:FULLY-SPECIFIED
:DEGREES
16
root 15.6285 15.2379 35.738 -153.608 -21.7096 183.105
lowerback 21.2549 -0.233611 6.95711
upperback 1.99404 1.2033 5.46196
thorax -9.69091 0.122899 1.76034
lowerneck -12.4635 1.18418 -3.27206
upperneck -13.3448 0.0123175 -4.23931
head -2.18181 -0.509258 -0.77513
rclavicle 4.37326e-014 -2.78299e-014
rhumerus -38.424 -1.86372 -81.4461
rradius 54.6377
rwrist -13.4679
rhand -35.7224 2.86558
rfingers 7.12502
rthumb -8.84197 -26.9292
lclavicle 4.37326e-014 -2.78299e-014
lhumerus -39.8081 -8.60996 99.3467
lradius 67.808
lwrist 10.1553
lhand -30.8106 -9.98445
lfingers 7.12502
lthumb -4.10023 19.9558
rfemur -50.1447 -5.83881 30.1572
rtibia 70.8776
rfoot -28.1359 -13.4455
rtoes -45.6988
lfemur -45.8671 3.23716 -15.8326
ltibia 94.5407
lfoot -4.04618 -1.35964
ltoes 3.73892
17
root 15.5076 15.1905 35.4004 -154.098 -21.3586 183.477
lowerback 21.3658 0.143735 7.12356
upperback 2.06632 1.72493 5.47552
thorax -9.65388 0.354293 1.53016
lowerneck -12.331 1.00838 -3.31191
upperneck -13.2871 -0.214619 -4.35738
head -2.1863 -0.60979 -0.810158
rclavicle 7.95139e-016 -3.10104e-014
rhumerus -35.9951 -1.4506 -82.3442
rradius 55.8215
rwrist -13.4014
rhand -35.8434 3.20819
rfingers 7.12502
rthumb -8.95872 -26.5816
lclavicle 7.95139e-016 -3.10104e-014
lhumerus -40.6328 -6.98719 97.9082
lradius 63.7797
lwrist 10.0202
lhand -31.8485 -10.2023
lfingers 7.12502
lthumb -5.10247 19.7163
rfemur -48.0019 -5.66681 30.1294
rtibia 70.6287
rfoot -28.8767 -13.4556
rtoes -46.2426
lfemur -49.2432 4.32799 -15.6744
ltibia 96.8457
lfoot -5.46487 -1.55477
ltoes 3.76912
18
root 15.3842 15.1412 35.0548 -154.616 -20.9195 183.815
lowerback 21.4518 0.514712 7.23279
upperback 2.13524 2.22416 5.43493
thorax -9.60421 0.579742 1.27798
lowerneck -12.2442 0.857419 -3.3182
upperneck -13.1629 -0.39562 -4.43258
head -2.16051 -0.688432 -0.836033
rclavicle 9.54166e-015 -9.54166e-015
rhumerus -33.7309 -0.707918 -83.3883
rradius 57.5332
rwrist -13.3876
rhand -35.7492 3.50271
rfingers 7.12502
rthumb -8.86779 -26.291
lclavicle 9.54166e-015 -9.54166e-015
lhumerus -41.9426 -5.78098 96.3244
lradius 60.5587
lwrist 9.67095
lhand -32.7991 -10.409
lfingers 7.12502
lthumb -6.02024 19.4855
rfemur -45.695 -5.45634 30.0172
rtibia 70.2316
rfoot -29.6229 -13.4532
rtoes -46.7915
lfemur -52.5959 5.40905 -15.6335
ltibia 98.7591
lfoot -6.69839 -1.87957
ltoes 3.51756
19
root 15.2578 15.0924 34.7004 -155.113 -20.3915 184.114
lowerback 21.4635 0.878653 7.2858
upperback 2.19384 2.69719 5.33659
thorax -9.52288 0.798948 1.00117
lowerneck -12.1905 0.7312 -3.28803
upperneck -12.9964 -0.535456 -4.46956
head -2.11458 -0.748018 -0.854995
rclavicle -6.12257e-014 -5.08889e-014
rhumerus -31.6381 0.395995 -84.5415
rradius 59.7313
rwrist -13.4707
rhand -35.4406 3.78045
rfingers 7.12502
rthumb -8.56994 -26.0256
lclavicle -6.12257e-014 -5.08889e-014
lhumerus -43.7958 -5.16714 94.6944
lradius 58.306
lwrist 9.13258
lhand -33.5776 -10.6014
lfingers 7.12502
lthumb -6.77184 19.2703
rfemur -43.2642 -5.1917 29.8211
rtibia 69.6494
rfoot -30.3487 -13.4261
rtoes -47.3191
lfemur -55.9544 6.45932 -15.7126
ltibia 100.25
lfoot -7.74956 -2.32174
ltoes 3.02911
20
root 15.128 15.0478 34.3353 -155.563 -19.7903 184.359
lowerback 21.4162 1.23017 7.27951
upperback 2.21375 3.14368 5.17801
thorax -9.45065 1.01184 0.700459
lowerneck -12.1673 0.622006 -3.22085
upperneck -12.7746 -0.643545 -4.47645
head -2.04489 -0.792774 -0.869945
rclavicle -1.90833e-014 8.5875e-014
rhumerus -29.7805 1.86264 -85.7477
rradius 62.3961
rwrist -13.6413
rhand -34.9171 3.95549
rfingers 7.12502
rthumb -8.06479 -25.8706
lclavicle -1.90833e-014 8.5875e-014
lhumerus -46.2565 -5.27342 93.155
lradius 57.1174
lwrist 8.47405
lhand -34.0662 -10.8513
lfingers 7.12502
lthumb -7.24346 19.0047
rfemur -40.7149 -4.87654 29.5369
rtibia 68.8432
rfoot -31.015 -13.3826
rtoes -47.8324
lfemur -59.2928 7.44066 -15.9074
ltibia 101.277
lfoot -8.64554 -2.87092
ltoes 2.34233
21
root 14.9948 15.0088 33.9584 -155.966 -19.1663 184.536
lowerback 21.2809 1.56666 7.22365
upperback 2.21382 3.55634 4.96911
thorax -9.35086 1.21522 0.384812
lowerneck -12.1655 0.516278 -3.12225
upperneck -12.5372 -0.746337 -4.46548
head -1.96673 -0.836647 -0.884445
rclavicle 3.89618e-014 3.02153e-014
rhumerus -28.1593 3.63194 -86.9241
rradius 65.4864
rwrist -13.8517
rhand -34.1855 4.07654
rfingers 7.12502
rthumb -7.35864 -25.7755
lclavicle 3.89618e-014 3.02153e-014
lhumerus -49.2724 -6.14981 91.8521
lradius 56.9954
lwrist 7.72765
lhand -34.2156 -11.2039
lfingers 7.12502
lthumb -7.38764 18.6471
rfemur -38.0401 -4.54013 29.1724
rtibia 67.7931
rfoot -31.6011 -13.3251
rtoes -48.3183
lfemur -62.5688 8.29054 -16.1964
ltibia 101.823
lfoot -9.42509 -3.50412
ltoes 1.42278
22
root 14.8575 14.9745 33.5696 -156.312 -18.5374 184.654
lowerback 21.035 1.89874 7.13319
upperback 2.19223 3.95105 4.72189
thorax -9.21264 1.41631 0.0570249
lowerneck -12.1565 0.396865 -3.00242
upperneck -12.3016 -0.869302 -4.44363
head -1.89088 -0.891159 -0.899511
rclavicle 4.77083e-015 4.77083e-015
rhumerus -26.7867 5.63371 -87.9878
rradius 68.9383
rwrist -14.0221
rhand -33.2848 4.10934
rfingers 7.12502
rthumb -6.48917 -25.7712
lclavicle 4.77083e-015 4.77083e-015
lhumerus -52.7962 -7.73202 90.9084
lradius 57.8519
lwrist 6.90366
lhand -34.07 -11.6141
lfingers 7.12502
lthumb -7.24711 18.2418
rfemur -35.2632 -4.18836 28.7444
rtibia 66.4921
rfoot -32.0753 -13.2197
rtoes -48.7513
lfemur -65.7652 8.9878 -16.5487
ltibia 101.892
lfoot -10.1126 -4.19373
ltoes 0.321003
23
root 14.7163 14.9441 33.1689 -156.606 -17.9502 184.721
lowerback 20.6833 2.23081 7.02788
upperback 2.14265 4.34017 4.45155
thorax -9.04469 1.61969 -0.278526
lowerneck -12.1348 0.244127 -2.88176
upperneck -12.0619 -1.03506 -4.4026
head -1.81651 -0.966345 -0.909561
rclavicle 5.08889e-014 7.4743e-014
rhumerus -25.6854 7.74565 -88.8672
rradius 72.7123
rwrist -14.0472
rhand -32.2327 4.07176
rfingers 7.12502
rthumb -5.47345 -25.8376
lclavicle 5.08889e-014 7.4743e-014
lhumerus -56.7605 -9.86126 90.387
lradius 59.5287
lwrist 5.98252
lhand -33.6436 -12.0861
lfingers 7.12502
lthumb -6.8355 17.7836
rfemur -32.3955 -3.84302 28.2775
rtibia 64.9382
rfoot -32.3851 -13.0775
rtoes -49.1738
lfemur -68.8524 9.4927 -16.919
ltibia 101.493
lfoot -10.727 -4.91652
ltoes -0.960871
24
root 14.5709 14.9174 32.7563 -156.859 -17.4273 184.746
lowerback 20.2178 2.57445 6.92064
upperback 2.07816 4.73903 4.17251
thorax -8.82681 1.83222 -0.614477
lowerneck -12.0928 0.0439773 -2.78172
upperneck -11.8239 -1.26038 -4.33337
head -1.74678 -1.0696 -0.908535
rclavicle -5.1684e-014 -1.1609e-013
rhumerus -24.821 9.87307 -89.502
rradius 76.711
rwrist -13.8947
rhand -31.1012 4.07865
rfingers 7.12502
rthumb -4.38082 -25.856
lclavicle -5.1684e-014 -1.1609e-013
lhumerus -61.0661 -12.3402 90.2934
lradius 61.8272
lwrist 5.00022
lhand -33.0107 -12.6312
lfingers 7.12502
lthumb -6.2245 17.2574
rfemur -29.4326 -3.51103 27.7864
rtibia 63.1278
rfoot -32.4999 -12.8542
rtoes -49.5584
lfemur -71.7826 9.79682 -17.2712
ltibia 100.64
lfoot -11.2748 -5.64391
ltoes -2.378
25
root 14.4207 14.8946 32.3316 -157.1 -17.0152 184.735
lowerback 19.6838 2.92159 6.8344
upperback 1.99313 5.14697 3.89736
thorax -8.58867 2.05107 -0.949251
lowerneck -12.0496 -0.211914 -2.7184
upperneck -11.5493 -1.54841 -4.22829
head -1.66588 -1.20168 -0.89159
rclavicle 3.81667e-014 2.54444e-014
rhumerus -24.1845 11.9535 -89.8672
rradius 80.8652
rwrist -13.6392
rhand -29.9482 4.05715
rfingers 7.12502
rthumb -3.26742 -25.8976
lclavicle 3.81667e-014 2.54444e-014
lhumerus -65.6445 -14.9687 90.5907
lradius 64.5373
lwrist 4.04001
lhand -32.2804 -13.1787
lfingers 7.12502
lthumb -5.51948 16.7294
rfemur -26.3463 -3.21778 27.2904
rtibia 61.0508
rfoot -32.3796 -12.5259
rtoes -49.9152
lfemur -74.4884 9.87296 -17.5631
ltibia 99.3424
lfoot -11.7671 -6.35632
ltoes -3.89413
26
root 14.2658 14.8762 31.8951 -157.345 -16.7229 184.699
lowerback 19.0902 3.27732 6.77414
upperback 1.90124 5.56972 3.63608
thorax -8.31942 2.27861 -1.27466
lowerneck -12.0073 -0.520191 -2.70482
upperneck -11.2376 -1.89289 -4.0809
head -1.57292 -1.35915 -0.854705
rclavicle -4.85035e-014 4.77083e-015
rhumerus -23.7173 13.9335 -89.9407
rradius 85.0916
rwrist -13.3216
rhand -28.8398 4.12387
rfingers 7.12502
rthumb -2.19697 -25.8446
lclavicle -4.85035e-014 4.77083e-015
lhumerus -70.3879 -17.5719 91.2137
lradius 67.4483
lwrist 3.22869
lhand -31.5495 -13.7145
lfingers 7.12502
lthumb -4.8137 16.2108
rfemur -23.1263 -2.95303 26.8013
rtibia 58.6942
rfoot -31.974 -12.0575
rtoes -50.2549
lfemur -76.9212 9.73864 -17.7713
ltibia 97.6148
lfoot -12.1909 -7.02261
ltoes -5.44498
27
root 14.1058 14.8628 31.4471 -157.605 -16.5635 184.641
lowerback 18.4552 3.63382 6.73713
upperback 1.81308 5.99594 3.39736
thorax -8.01888 2.50915 -1.57629
lowerneck -11.9874 -0.870329 -2.74573
upperneck -10.8755 -2.27896 -3.89907
head -1.45974 -1.5353 -0.799924
rclavicle 7.15625e-015 2.38542e-014
rhumerus -23.3563 15.7988 -89.7233
rradius 89.2919
rwrist -13.0273
rhand -27.8884 4.3397
rfingers 7.12502
rthumb -1.27809 -25.6362
lclavicle 7.15625e-015 2.38542e-014
lhumerus -75.1979 -19.994 92.0769
lradius 70.391
lwrist 2.70214
lhand -30.8795 -14.2152
lfingers 7.12502
lthumb -4.16679 15.7238
rfemur -19.7642 -2.71055 26.3276
rtibia 56.0468
rfoot -31.2149 -11.4275
rtoes -50.5922
lfemur -79.0403 9.40737 -17.8869
ltibia 95.4736
lfoot -12.5468 -7.62632
ltoes -6.9881
